<?xml version="1.0" encoding="utf-8"?>
<!-- Generator: Adobe Illustrator 17.0.0, SVG Export Plug-In . SVG Version: 6.00 Build 0)  -->
<!DOCTYPE svg PUBLIC "-//W3C//DTD SVG 1.1//EN" "http://www.w3.org/Graphics/SVG/1.1/DTD/svg11.dtd">
<svg version="1.1" id="Layer_1" xmlns="http://www.w3.org/2000/svg" xmlns:xlink="http://www.w3.org/1999/xlink" x="0px" y="0px"
	 width="30px" height="30px" viewBox="418.521 381 30 30" style="enable-background:new 418.521 381 30 30;" xml:space="preserve">
<g>
	<path style="fill-rule:evenodd;clip-rule:evenodd;fill:#D6790F;" d="M444.705,402.357c0.353,0.353,0.589,0.824,0.824,1.177
		s0.353,0.706,0.353,1.06c0,0.353-0.118,0.589-0.353,0.824c-0.235,0.235-0.589,0.353-1.06,0.353h-21.897
		c-0.471,0-0.824-0.118-1.06-0.353c-0.235-0.235-0.353-0.471-0.353-0.824c0-0.353,0.118-0.706,0.353-1.06
		c0.118-0.471,0.471-0.824,0.824-1.177c0.353-0.353,0.589-0.824,0.942-1.295c0.235-0.353,0.589-0.824,0.824-1.413
		c0.235-0.471,0.471-1.06,0.706-1.884c0.118-0.589,0.235-1.06,0.353-1.53c0.118-0.471,0.118-0.824,0.235-1.295
		c0-0.353,0-0.706,0-1.06c0.118-1.648,0.353-3.061,0.589-4.356c0.353-1.295,0.706-2.354,1.295-3.179
		c0.589-0.942,1.177-1.648,2.001-2.119c0.824-0.589,1.648-0.824,2.59-0.942c0,0.118,0,0.118-0.118,0c0-0.118,0-0.353,0-0.471
		c0-0.471,0.118-0.942,0.471-1.295c0.353-0.235,0.824-0.471,1.295-0.471c0.235,0,0.471,0.118,0.706,0.118
		c0.235,0.118,0.353,0.235,0.589,0.471c0.118,0.118,0.235,0.353,0.353,0.471c0.118,0.235,0.118,0.471,0.118,0.706
		c0,0.353-0.118,0.471-0.118,0.471c0.824,0.118,1.766,0.353,2.59,0.942c0.706,0.471,1.413,1.177,2.001,2.119
		c0.589,0.824,0.942,1.884,1.295,3.179c0.235,1.295,0.471,2.708,0.471,4.356c0,0.353,0.118,0.706,0.118,1.06
		c0.118,0.471,0.118,0.942,0.235,1.295c0.118,0.471,0.235,0.942,0.353,1.53c0.235,0.706,0.471,1.413,0.706,2.001
		c0.235,0.471,0.589,0.942,0.824,1.295C444.116,401.533,444.351,402.004,444.705,402.357L444.705,402.357z M433.521,410.951
		c-0.589,0-1.177-0.118-1.648-0.235c-0.471-0.235-0.942-0.471-1.413-0.824c-0.353-0.353-0.706-0.824-1.06-1.177
		c-0.235-0.471-0.471-1.177-0.589-1.884h9.418c-0.118,0.706-0.353,1.413-0.589,1.766c-0.353,0.471-0.706,0.942-1.06,1.295
		c-0.471,0.353-0.942,0.589-1.413,0.824C434.58,410.833,434.109,410.951,433.521,410.951L433.521,410.951z"/>
</g>
</svg>
