<?xml version="1.0" encoding="utf-8"?>
<!-- Generator: Adobe Illustrator 17.0.0, SVG Export Plug-In . SVG Version: 6.00 Build 0)  -->
<!DOCTYPE svg PUBLIC "-//W3C//DTD SVG 1.1//EN" "http://www.w3.org/Graphics/SVG/1.1/DTD/svg11.dtd">
<svg version="1.1" id="Layer_1" xmlns="http://www.w3.org/2000/svg" xmlns:xlink="http://www.w3.org/1999/xlink" x="0px" y="0px"
	 width="30px" height="30px" viewBox="322.375 381 30 30" enable-background="new 322.375 381 30 30" xml:space="preserve">
<g>
	<path fill="#464342" d="M324.507,396c0,5.093,2.96,9.495,7.252,11.581l-6.138-16.818C324.907,392.363,324.507,394.134,324.507,396z
		"/>
	<path fill="#464342" d="M346.061,395.35c0-1.59-0.571-2.692-1.061-3.549c-0.652-1.06-1.264-1.958-1.264-3.018
		c0-1.183,0.897-2.284,2.161-2.284c0.057,0,0.111,0.007,0.167,0.01c-2.289-2.097-5.339-3.378-8.69-3.378
		c-4.495,0-8.451,2.307-10.751,5.8c0.302,0.009,0.586,0.015,0.828,0.015c1.346,0,3.429-0.163,3.429-0.163
		c0.694-0.041,0.775,0.978,0.083,1.06c0,0-0.697,0.082-1.473,0.123l4.686,13.938l2.816-8.446l-2.005-5.493
		c-0.693-0.041-1.349-0.123-1.349-0.123c-0.693-0.041-0.612-1.101,0.081-1.06c0,0,2.125,0.163,3.389,0.163
		c1.346,0,3.429-0.163,3.429-0.163c0.694-0.041,0.776,0.978,0.083,1.06c0,0-0.699,0.082-1.473,0.123l4.65,13.833l1.284-4.289
		C345.638,397.73,346.061,396.452,346.061,395.35z"/>
	<path fill="#464342" d="M337.6,397.125l-3.861,11.219c1.153,0.339,2.372,0.524,3.635,0.524c1.499,0,2.936-0.259,4.273-0.729
		c-0.035-0.055-0.066-0.114-0.092-0.177L337.6,397.125z"/>
	<path fill="#464342" d="M348.666,389.826c0.055,0.41,0.087,0.85,0.087,1.323c0,1.306-0.244,2.774-0.978,4.609l-3.931,11.364
		c3.826-2.231,6.399-6.375,6.399-11.123C350.242,393.763,349.671,391.659,348.666,389.826z"/>
	<path fill="#464342" d="M337.375,381c-8.271,0-15,6.729-15,15c0,8.272,6.729,15,15,15c8.271,0,15.001-6.729,15.001-15
		C352.375,387.729,345.645,381,337.375,381z M337.375,410.312c-7.892,0-14.312-6.421-14.312-14.313
		c0-7.892,6.421-14.312,14.312-14.312c7.891,0,14.312,6.42,14.312,14.312C351.686,403.892,345.266,410.312,337.375,410.312z"/>
</g>
</svg>
